<?xml version="1.0" encoding="UTF-8"?>
<svg xmlns="http://www.w3.org/2000/svg"  viewBox="0 0 32 32" width="32px" height="32px">
<g id="surface157507078">
<path style=" stroke:none;fill-rule:nonzero;fill:rgb(100%,99.607843%,99.607843%);fill-opacity:1;" d="M 16 2.746094 C 13.460938 2.566406 10.8125 3.972656 9.519531 6.257812 C 9.484375 6.316406 9.460938 6.382812 9.425781 6.441406 C 7.535156 6.582031 5.625 7.648438 4.523438 9.371094 C 3.097656 11.484375 2.988281 14.476562 4.320312 16.738281 C 4.355469 16.800781 4.402344 16.851562 4.4375 16.914062 C 3.613281 18.621094 3.582031 20.808594 4.523438 22.625 C 5.640625 24.914062 8.175781 26.507812 10.800781 26.484375 C 10.871094 26.484375 10.9375 26.472656 11.007812 26.472656 C 12.074219 28.039062 13.953125 29.160156 15.996094 29.253906 C 18.535156 29.433594 21.1875 28.027344 22.480469 25.742188 C 22.515625 25.683594 22.539062 25.617188 22.574219 25.554688 C 24.464844 25.414062 26.375 24.347656 27.476562 22.625 C 28.898438 20.515625 29.015625 17.519531 27.679688 15.257812 C 27.644531 15.195312 27.601562 15.140625 27.566406 15.082031 C 28.390625 13.375 28.417969 11.191406 27.476562 9.375 C 26.359375 7.085938 23.824219 5.492188 21.199219 5.515625 C 21.128906 5.515625 21.058594 5.527344 20.988281 5.527344 C 19.921875 3.960938 18.042969 2.839844 16 2.746094 Z M 16 5.253906 C 16.980469 5.160156 17.996094 5.394531 18.941406 5.875 C 17.191406 6.457031 15.671875 7.710938 14.871094 9.347656 C 13.996094 10.996094 13.957031 12.964844 14.582031 14.589844 C 14.503906 14.667969 14.429688 14.753906 14.367188 14.847656 C 13.269531 14.246094 12.414062 13.378906 11.941406 12.34375 C 11.238281 10.863281 11.316406 9.109375 12.097656 7.746094 C 12.859375 6.351562 14.347656 5.425781 16 5.253906 Z M 8.707031 8.390625 C 8.335938 10.199219 8.660156 12.140625 9.675781 13.652344 C 10.664062 15.234375 12.351562 16.25 14.070312 16.519531 C 14.097656 16.628906 14.136719 16.738281 14.183594 16.839844 C 13.113281 17.488281 11.933594 17.792969 10.800781 17.6875 C 9.164062 17.554688 7.691406 16.609375 6.902344 15.253906 C 6.074219 13.894531 6.011719 12.144531 6.695312 10.625 C 7.105469 9.730469 7.816406 8.96875 8.707031 8.390625 Z M 21.195312 8.492188 C 22.785156 8.453125 24.335938 9.273438 25.308594 10.625 C 25.878906 11.429688 26.183594 12.429688 26.238281 13.492188 C 24.859375 12.265625 23.015625 11.570312 21.195312 11.695312 C 19.332031 11.761719 17.605469 12.714844 16.511719 14.070312 C 16.402344 14.042969 16.292969 14.023438 16.183594 14.011719 C 16.15625 12.757812 16.476562 11.582031 17.136719 10.652344 C 18.070312 9.304688 19.625 8.5 21.195312 8.492188 Z M 21.199219 14.3125 C 22.835938 14.445312 24.308594 15.390625 25.097656 16.746094 C 25.925781 18.105469 25.992188 19.855469 25.308594 21.375 C 24.898438 22.269531 24.183594 23.03125 23.292969 23.609375 C 23.664062 21.800781 23.339844 19.859375 22.324219 18.347656 C 21.335938 16.765625 19.648438 15.75 17.929688 15.480469 C 17.902344 15.371094 17.863281 15.261719 17.816406 15.160156 C 18.886719 14.511719 20.066406 14.207031 21.199219 14.3125 Z M 17.632812 17.152344 C 18.730469 17.753906 19.589844 18.621094 20.0625 19.65625 C 20.765625 21.136719 20.679688 22.890625 19.902344 24.253906 C 19.140625 25.648438 17.65625 26.578125 16 26.746094 C 15.019531 26.839844 14.003906 26.605469 13.058594 26.125 C 14.808594 25.542969 16.328125 24.289062 17.128906 22.652344 C 18.003906 21.003906 18.042969 19.035156 17.417969 17.410156 C 17.496094 17.332031 17.570312 17.242188 17.632812 17.152344 Z M 15.488281 17.929688 C 15.597656 17.957031 15.707031 17.976562 15.816406 17.988281 C 15.84375 19.242188 15.523438 20.421875 14.863281 21.347656 C 13.929688 22.699219 12.371094 23.5 10.804688 23.507812 C 9.214844 23.546875 7.664062 22.726562 6.691406 21.375 C 6.121094 20.570312 5.816406 19.570312 5.761719 18.507812 C 7.140625 19.734375 8.984375 20.429688 10.804688 20.304688 C 12.667969 20.238281 14.394531 19.285156 15.488281 17.929688 Z M 15.488281 17.929688 "/>
</g>
</svg>
