<?xml version="1.0" encoding="UTF-8"?>
<svg xmlns="http://www.w3.org/2000/svg"  viewBox="0 0 96 96" width="96px" height="96px">
<g id="surface157898107">
<path style=" stroke:none;fill-rule:nonzero;fill:rgb(100%,100%,100%);fill-opacity:1;" d="M 82.628906 53.421875 C 79.277344 53.4375 76.371094 54.242188 73.9375 55.445312 C 73.042969 53.667969 72.144531 52.105469 71.992188 50.941406 C 71.816406 49.585938 71.613281 48.773438 71.824219 47.15625 C 72.035156 45.539062 72.972656 43.253906 72.960938 43.078125 C 72.949219 42.90625 72.753906 42.085938 70.816406 42.070312 C 68.878906 42.058594 67.226562 42.445312 67.03125 42.957031 C 66.835938 43.46875 66.464844 44.617188 66.230469 45.816406 C 65.890625 47.566406 62.371094 53.824219 60.371094 57.097656 C 59.714844 55.820312 59.160156 54.691406 59.042969 53.804688 C 58.867188 52.449219 58.664062 51.636719 58.875 50.019531 C 59.089844 48.402344 60.023438 46.117188 60.011719 45.945312 C 60 45.773438 59.804688 44.949219 57.867188 44.9375 C 55.933594 44.925781 54.28125 45.308594 54.085938 45.820312 C 53.886719 46.332031 53.679688 47.523438 53.285156 48.679688 C 52.886719 49.835938 48.203125 60.269531 46.980469 62.972656 C 46.355469 64.347656 45.8125 65.457031 45.429688 66.210938 L 45.425781 66.207031 C 45.425781 66.207031 45.398438 66.261719 45.359375 66.34375 C 45.03125 66.988281 44.835938 67.34375 44.835938 67.34375 C 44.835938 67.34375 44.839844 67.347656 44.839844 67.355469 C 44.578125 67.828125 44.300781 68.269531 44.160156 68.269531 C 44.0625 68.269531 43.867188 67.011719 44.203125 65.285156 C 44.898438 61.664062 46.574219 56.019531 46.554688 55.828125 C 46.546875 55.726562 46.867188 54.742188 45.464844 54.230469 C 44.101562 53.730469 43.613281 54.5625 43.488281 54.566406 C 43.367188 54.570312 43.277344 54.863281 43.277344 54.863281 C 43.277344 54.863281 44.796875 48.515625 40.375 48.515625 C 37.613281 48.515625 33.785156 51.539062 31.894531 54.28125 C 30.703125 54.929688 28.15625 56.320312 25.457031 57.804688 C 24.414062 58.375 23.359375 58.957031 22.351562 59.511719 C 22.285156 59.4375 22.214844 59.359375 22.144531 59.285156 C 16.785156 53.5625 6.871094 49.519531 7.292969 41.832031 C 7.445312 39.035156 8.414062 31.675781 26.332031 22.746094 C 41.007812 15.4375 52.761719 17.449219 54.789062 21.90625 C 57.6875 28.28125 48.507812 40.125 33.269531 41.832031 C 27.460938 42.484375 24.402344 40.230469 23.644531 39.394531 C 22.84375 38.511719 22.722656 38.472656 22.425781 38.640625 C 21.9375 38.90625 22.242188 39.6875 22.425781 40.152344 C 22.878906 41.335938 24.746094 43.4375 27.933594 44.480469 C 30.730469 45.398438 37.550781 45.902344 45.796875 42.714844 C 55.03125 39.144531 62.242188 29.207031 60.125 20.898438 C 57.96875 12.453125 43.964844 9.675781 30.703125 14.382812 C 22.824219 17.171875 14.285156 21.570312 8.144531 27.316406 C 0.84375 34.144531 -0.324219 40.09375 0.15625 42.574219 C 1.859375 51.398438 14.023438 57.148438 18.894531 61.40625 C 18.65625 61.539062 18.433594 61.664062 18.222656 61.78125 C 15.78125 62.988281 6.507812 67.839844 4.1875 72.96875 C 1.554688 78.785156 4.609375 82.957031 6.625 83.519531 C 12.878906 85.261719 19.300781 82.128906 22.746094 76.984375 C 26.195312 71.839844 25.777344 65.140625 24.191406 62.085938 C 24.171875 62.046875 24.152344 62.007812 24.132812 61.972656 C 24.765625 61.601562 25.402344 61.21875 26.042969 60.84375 C 27.289062 60.117188 28.507812 59.433594 29.5625 58.855469 C 28.972656 60.480469 28.535156 62.425781 28.3125 65.234375 C 28.050781 68.53125 29.40625 72.800781 31.175781 74.480469 C 31.957031 75.21875 32.890625 75.234375 33.488281 75.234375 C 35.546875 75.234375 36.488281 73.523438 37.523438 71.496094 C 38.792969 69.007812 39.921875 66.117188 39.921875 66.117188 C 39.921875 66.117188 38.507812 73.9375 42.359375 73.9375 C 43.765625 73.9375 45.175781 72.117188 45.804688 71.1875 C 45.804688 71.199219 45.808594 71.203125 45.808594 71.203125 C 45.808594 71.203125 45.84375 71.144531 45.914062 71.023438 C 46.058594 70.800781 46.144531 70.660156 46.144531 70.660156 C 46.144531 70.660156 46.148438 70.644531 46.152344 70.621094 C 46.714844 69.640625 47.96875 67.40625 49.84375 63.722656 C 52.269531 58.964844 54.59375 53.003906 54.59375 53.003906 C 54.59375 53.003906 54.808594 54.460938 55.515625 56.871094 C 55.933594 58.289062 56.820312 59.855469 57.515625 61.359375 C 56.953125 62.140625 56.609375 62.589844 56.609375 62.589844 C 56.609375 62.589844 56.613281 62.597656 56.617188 62.613281 C 56.167969 63.207031 55.664062 63.851562 55.136719 64.480469 C 53.222656 66.761719 50.945312 69.359375 50.640625 70.113281 C 50.28125 70.996094 50.363281 71.648438 51.058594 72.171875 C 51.566406 72.554688 52.472656 72.613281 53.417969 72.550781 C 55.136719 72.4375 56.34375 72.007812 56.945312 71.753906 C 57.875 71.425781 58.960938 70.902344 59.976562 70.15625 C 61.851562 68.777344 62.984375 66.800781 62.875 64.1875 C 62.816406 62.746094 62.355469 61.320312 61.777344 59.972656 C 61.949219 59.726562 62.117188 59.480469 62.289062 59.226562 C 65.246094 54.902344 67.542969 50.148438 67.542969 50.148438 C 67.542969 50.148438 67.761719 51.605469 68.46875 54.015625 C 68.828125 55.234375 69.53125 56.566406 70.171875 57.871094 C 67.386719 60.132812 65.664062 62.761719 65.0625 64.484375 C 63.957031 67.671875 64.824219 69.117188 66.453125 69.445312 C 67.1875 69.59375 68.230469 69.257812 69.011719 68.925781 C 69.988281 68.601562 71.15625 68.0625 72.253906 67.261719 C 74.128906 65.878906 75.933594 63.949219 75.824219 61.332031 C 75.777344 60.140625 75.453125 58.960938 75.011719 57.824219 C 77.371094 56.839844 80.425781 56.296875 84.3125 56.746094 C 92.65625 57.722656 94.292969 62.933594 93.980469 65.113281 C 93.667969 67.292969 91.917969 68.492188 91.332031 68.851562 C 90.746094 69.210938 90.566406 69.339844 90.617188 69.609375 C 90.6875 70 90.957031 69.984375 91.457031 69.898438 C 92.144531 69.785156 95.835938 68.128906 95.996094 64.101562 C 96.195312 58.984375 91.300781 53.371094 82.628906 53.421875 Z M 18.3125 75.101562 C 15.546875 78.117188 11.6875 79.257812 10.03125 78.296875 C 8.242188 77.261719 8.953125 72.820312 12.34375 69.621094 C 14.410156 67.671875 17.078125 65.875 18.851562 64.769531 C 19.257812 64.523438 19.847656 64.167969 20.566406 63.738281 C 20.6875 63.671875 20.757812 63.636719 20.757812 63.636719 L 20.753906 63.632812 C 20.890625 63.546875 21.03125 63.464844 21.179688 63.375 C 22.410156 67.929688 21.210938 71.9375 18.3125 75.101562 Z M 38.449219 61.410156 C 37.484375 63.761719 35.472656 69.765625 34.242188 69.441406 C 33.191406 69.164062 32.550781 64.601562 34.03125 60.109375 C 34.78125 57.847656 36.371094 55.144531 37.3125 54.097656 C 38.820312 52.40625 40.480469 51.855469 40.882812 52.539062 C 41.398438 53.417969 39.050781 59.945312 38.449219 61.410156 Z M 55.078125 69.351562 C 54.671875 69.5625 54.296875 69.699219 54.125 69.597656 C 53.996094 69.519531 54.292969 69.238281 54.292969 69.238281 C 54.292969 69.238281 56.371094 67 57.191406 65.984375 C 57.667969 65.390625 58.21875 64.6875 58.824219 63.898438 C 58.828125 63.980469 58.832031 64.054688 58.832031 64.132812 C 58.828125 66.8125 56.234375 68.625 55.078125 69.351562 Z M 67.894531 66.429688 C 67.59375 66.210938 67.644531 65.511719 68.644531 63.332031 C 69.035156 62.476562 69.933594 61.035156 71.492188 59.65625 C 71.671875 60.222656 71.785156 60.765625 71.78125 61.273438 C 71.761719 64.648438 69.351562 65.90625 67.894531 66.429688 Z M 67.894531 66.429688 "/>
</g>
</svg>
